<?xml version="1.0" encoding="utf-8"?>
<svg viewBox="0 0 15 15" version="1.1" xmlns:xlink="http://www.w3.org/1999/xlink" xmlns="http://www.w3.org/2000/svg">
  <g id="broken-link">
    <path d="M5.66587 0C4.70814 0 3.80756 0.373227 3.1302 1.05058L0.337558 3.84323C0.550988 3.81343 0.764215 3.78108 0.982384 3.78108C1.58392 3.78108 2.17337 3.89794 2.71526 4.11462L4.45477 2.37512C4.77858 2.05174 5.20852 1.87337 5.66587 1.87337C6.61035 1.87337 7.37872 2.64174 7.37872 3.58622C7.37872 4.0436 7.20035 4.47352 6.87698 4.79733L3.74587 7.92849C3.09823 8.5752 1.97128 8.57567 1.32363 7.92895L0 9.25442C0.676919 9.93087 1.57747 10.3036 2.53474 10.3036C3.49247 10.3036 4.39302 9.93041 5.07041 9.25305L8.20157 6.12189C8.87892 5.44453 9.25215 4.54395 9.25215 3.58622C9.25212 1.60858 7.64355 4.13106e-16 5.66587 0Z" transform="translate(5.734971 0)" id="Path" stroke="none" />
    <path d="M6.52044 6.17089L4.79735 7.89398C4.47355 8.21735 4.0436 8.39572 3.58625 8.39572C2.64177 8.39572 1.8734 7.62735 1.8734 6.68287C1.8734 6.22552 2.05177 5.79557 2.37515 5.47177L5.50631 2.3406C6.15395 1.69389 7.2809 1.69342 7.92855 2.34014L9.25218 1.01467C7.89791 -0.338234 5.53651 -0.33867 4.18177 1.01604L1.05058 4.1472C0.373198 4.82456 0 5.72511 0 6.68284C0 8.66052 1.60858 10.2691 3.58622 10.2691C4.54395 10.2691 5.44451 9.89584 6.12189 9.21848L8.87747 6.4629C8.67628 6.48993 8.47613 6.52229 8.26968 6.52229C7.65887 6.52232 7.06727 6.4002 6.52044 6.17089Z" transform="translate(1.652425E-15 4.718001)" id="Path" stroke="none" />
  </g>
</svg>
