<?xml version="1.0" encoding="utf-8"?>
<svg viewBox="0 0 40 40" version="1.1" xmlns:xlink="http://www.w3.org/1999/xlink" xmlns="http://www.w3.org/2000/svg">
  <g id="chrome">
    <path d="M34.283 12.4773L15.7858 12.4773C11.6518 12.4732 8.29715 15.8212 8.29302 19.9552C8.29177 21.2393 8.62082 22.5021 9.24858 23.6222L0 7.75314C6.7363 -0.965374 19.2649 -2.57224 27.9835 4.16406C30.7834 6.32741 32.9576 9.19658 34.283 12.4773Z" transform="translate(4.176842 -5.9391E-06)" id="Path" fill="#F44336" stroke="none" />
    <path d="M22.4561 7.48539C22.4469 18.5057 13.5155 27.4372 2.49513 27.4464C1.66051 27.4495 0.826745 27.3939 0 27.2801L8.98246 11.2281C11.0412 7.64414 9.81396 3.07018 6.23782 0.998058C5.10558 0.342542 3.82004 -0.00186376 2.51173 7.58552e-06L20.9923 7.58552e-06C21.9637 2.37584 22.461 4.91868 22.4561 7.48539Z" transform="translate(17.46752 12.47726)" id="Path" fill="#FFC107" stroke="none" />
    <path d="M26.4499 15.9522L17.4675 32.0042L17.4509 32.0042C6.52002 30.6232 -1.22157 20.6423 0.159478 9.7115C0.606496 6.17349 1.99371 2.81996 4.17679 0L13.4254 15.869L13.4753 15.9522C15.5377 19.535 20.1141 20.7676 23.6969 18.7052C24.8414 18.0464 25.7912 17.0966 26.4499 15.9522Z" transform="translate(5.366414E-05 7.753139)" id="Path" fill="#4CAF50" stroke="none" />
    <path d="M13.9814 11.2282C11.919 14.811 7.34262 16.0435 3.75977 13.9811C2.61537 13.3223 1.66558 12.3726 1.00679 11.2282L0.956886 11.145C-1.06424 7.53864 0.220902 2.97669 3.82722 0.955563C4.94737 0.327805 6.21014 -0.00123998 7.49412 7.58552e-06L7.51073 7.58552e-06C8.81903 -0.00186376 10.1046 0.342542 11.2368 0.998058C14.813 3.07026 16.0402 7.64422 13.9814 11.2282Z" transform="translate(12.46853 12.47719)" id="Path" fill="#F44336" stroke="none" />
    <path d="M13.9814 11.2282C11.919 14.811 7.34262 16.0435 3.75977 13.9811C2.61537 13.3223 1.66558 12.3726 1.00679 11.2282L0.956886 11.145C-1.06424 7.53864 0.220902 2.97669 3.82722 0.955563C4.94737 0.327805 6.21014 -0.00123998 7.49412 7.58552e-06L7.51073 7.58552e-06C8.81903 -0.00186376 10.1046 0.342542 11.2368 0.998058C14.813 3.07026 16.0402 7.64422 13.9814 11.2282Z" transform="translate(12.46853 12.47719)" id="Path" fill="#2196F3" stroke="none" />
    <path d="M4.1647 15.5263C5.4203 16.2519 6.84486 16.634 8.29499 16.6342C11.2762 16.637 14.0336 15.0526 15.5325 12.4756C16.2636 11.2094 16.648 9.77279 16.6468 8.31065C16.6433 3.71728 12.9167 -0.00358157 8.3233 5.1781e-06C6.8617 -0.000774549 5.42568 0.383553 4.15995 1.11431C0.181934 3.411 -1.18103 8.49763 1.11566 12.4756C1.8472 13.7421 2.89866 14.7941 4.1647 15.5263ZM2.55113 4.99026C3.74131 2.9211 5.95121 1.65069 8.33819 1.6634L8.33819 1.66348L8.33983 1.66348C9.50318 1.66581 10.6456 1.97318 11.6532 2.55486C14.8356 4.39229 15.926 8.4616 14.0886 11.644C12.2513 14.8299 8.17897 15.9232 4.99301 14.0859C1.80704 12.2485 0.713786 8.17622 2.55113 4.99026Z" transform="translate(11.63943 11.64561)" id="Shape" fill="#FAFAFA" fill-rule="evenodd" stroke="none" />
  </g>
</svg>
