<?xml version="1.0" encoding="utf-8"?>
<svg viewBox="0 0 15 20" version="1.1" xmlns:xlink="http://www.w3.org/1999/xlink" xmlns="http://www.w3.org/2000/svg">
  <g id="icon/trash">
    <g id="trash">
      <path d="M1.16189 1.16189L4.37882 1.16189L4.37882 1.70318L5.54056 1.70318L5.54056 1.08611C5.54071 0.487253 5.05375 0 4.45518 0L1.08553 0C0.48696 0 0 0.487253 0 1.08611L0 1.70318L1.16189 1.70318L1.16189 1.16189Z" transform="translate(4.716723 0)" id="Path" fill="#727292" stroke="none" />
      <path d="M11.4181 0L0.511713 0C0.21287 0 -0.0223861 0.254934 0.00169753 0.552896L0.913499 11.8276C0.964309 12.457 1.4893 12.9417 2.12003 12.9417L9.80962 12.9417C10.4403 12.9417 10.9653 12.457 11.0161 11.8274L11.9279 0.552896C11.9522 0.254934 11.7169 0 11.4181 0ZM9.4187 11.1935L9.96425 1.93756C9.98305 1.61728 9.73869 1.34222 9.4184 1.32343C9.09724 1.30448 8.82321 1.54884 8.80442 1.86913L8.25901 11.1252C8.24007 11.4455 8.48443 11.7204 8.80471 11.7393C8.81631 11.7399 8.82791 11.7402 8.83937 11.7402C9.14452 11.7402 9.40063 11.5021 9.4187 11.1935ZM6.5523 11.1594C6.5523 11.4801 6.29223 11.7402 5.97136 11.7402C5.65049 11.7402 5.39041 11.4801 5.39041 11.1594L5.39041 1.90334C5.39041 1.58247 5.65049 1.3224 5.97136 1.3224C6.29208 1.3224 6.5523 1.58247 6.5523 1.90334L6.5523 11.1594ZM3.11612 11.7403C3.12817 11.7403 3.14035 11.7399 3.15254 11.7392C3.47268 11.7193 3.71631 11.4438 3.69648 11.1236L3.12523 1.86766C3.10555 1.54723 2.82874 1.30419 2.50963 1.32357C2.18949 1.34325 1.94586 1.61889 1.96554 1.93917L2.53694 11.1951C2.55589 11.5032 2.81155 11.7403 3.11612 11.7403Z" transform="translate(1.522181 6.306391)" id="Shape" fill="#727292" fill-rule="evenodd" stroke="none" />
      <path d="M14.9492 1.64855L14.5676 0.504875C14.4671 0.203389 14.1848 0 13.8669 0L1.10709 0C0.789307 0 0.506912 0.203389 0.406465 0.504875L0.024945 1.64855C-0.0486276 1.86913 0.0471196 2.0941 0.225838 2.2063C0.298676 2.25197 0.384878 2.27943 0.479597 2.27943L14.4945 2.27943C14.5892 2.27943 14.6756 2.25197 14.7483 2.20615C14.927 2.09396 15.0227 1.86898 14.9492 1.64855Z" transform="translate(1.976863E-05 2.865073)" id="Path" fill="#727292" stroke="none" />
    </g>
  </g>
</svg>
