<?xml version="1.0" encoding="utf-8"?>
<svg viewBox="0 0 25 22" version="1.1" xmlns:xlink="http://www.w3.org/1999/xlink" xmlns="http://www.w3.org/2000/svg">
  <g id="refresh">
    <path d="M14.1957 0C8.24157 0 3.39974 4.84694 3.39974 10.801L3.39974 10.8367L1.26198 7.61735C1.0528 7.30102 0.624225 7.21429 0.307899 7.42347C-0.00842772 7.63265 -0.0951624 8.06122 0.114021 8.37755L3.21606 13.0459C3.32831 13.2143 3.50688 13.3214 3.70586 13.3469C3.73647 13.352 3.76198 13.352 3.79259 13.352C3.96096 13.352 4.12423 13.2908 4.25178 13.1735L8.563 9.29082C8.84361 9.03571 8.86912 8.60204 8.61402 8.31633C8.35892 8.03571 7.92525 8.0102 7.63953 8.26531L4.77729 10.852L4.77729 10.801C4.77729 5.60204 9.00178 1.37755 14.1957 1.37755C19.3895 1.37755 23.6191 5.60204 23.6191 10.801C23.6191 16 19.3946 20.2245 14.2008 20.2245C11.6854 20.2245 9.3181 19.2449 7.54259 17.4643C7.27218 17.1939 6.83851 17.1939 6.5681 17.4643C6.29769 17.7347 6.29769 18.1684 6.5681 18.4388C8.60892 20.4796 11.3181 21.602 14.2008 21.602C20.1497 21.602 24.9967 16.7602 24.9967 10.801C24.9967 4.84184 20.1497 0 14.1957 0Z" transform="translate(9.354471E-06 0.01362245)" id="Path" fill="#727292" stroke="none" />
  </g>
</svg>
