<?xml version="1.0" encoding="utf-8"?>
<svg viewBox="0 0 38 42" version="1.1" xmlns:xlink="http://www.w3.org/1999/xlink" xmlns="http://www.w3.org/2000/svg">
  <g id="shield">
    <path d="M1.72727 0.0127503C1.05208 -0.118006 0.31187 0.771761 0.074005 2.00002C-0.163872 3.22835 0.190659 4.33012 0.865846 4.46087C1.54106 4.59164 2.28124 3.70187 2.51912 2.47354C2.75698 1.24528 2.40248 0.143513 1.72727 0.0127503Z" transform="translate(27.41042 15.22701)" id="Path" fill="#FEDA6F" stroke="none" />
    <path d="M0.865854 0.0127503C1.54104 -0.118006 2.28125 0.771761 2.51911 2.00002C2.75699 3.22835 2.40246 4.33012 1.72727 4.46087C1.05206 4.59164 0.311879 3.70187 0.0740021 2.47354C-0.163862 1.24528 0.190637 0.143513 0.865854 0.0127503L0.865854 0.0127503Z" transform="translate(7.359458 15.22701)" id="Path" fill="#FEDA6F" stroke="none" />
    <path d="M11.1904 2.27677L10.0209 0L1.38639 0L0 2.29661L0.719637 6.06747C0.719637 6.06747 4.82018 7.30097 6.22037 7.36765C7.62055 7.43432 11.8211 7.06761 12.0211 6.60088C12.2212 6.13415 11.1904 2.27677 11.1904 2.27677L11.1904 2.27677Z" transform="translate(13.0732 25.56405)" id="Path" fill="#F2C144" stroke="none" />
    <path d="M20.496 8.45074C20.496 9.55969 20.99 10.7547 20.6677 12.0182C19.3268 17.4204 15.317 23.4673 10.5852 23.4673C5.905 23.4673 1.9468 17.601 0.554396 12.2631C0.19335 10.9094 0 9.5943 0 8.42098C0 2.77394 4.99613 1.97741 10.5788 1.66799C10.7335 1.65509 10.4891 0.479606 10.6438 0.479606L10.6116 1.1945C10.8436 1.1945 11.2861 -0.0128032 11.5182 0.00010274C11.7116 0.0130086 11.8467 1.25767 12.04 1.28348C12.1561 1.28348 11.5714 0.524467 11.6874 0.550121C16.7673 1.33658 20.496 3.15168 20.496 8.45074Z" transform="translate(8.09346 4.738258)" id="Path" fill="#FCD462" stroke="none" />
    <path d="M37.8142 14.0317C37.6635 7.2976 32.9515 1.31871 26.2912 0.13866C25.974 0.0891745 25.6469 0.039685 25.3198 0L24.17 0C22.5544 1.73456 20.6414 2.87432 18.5799 2.87432C16.5182 2.87432 14.6052 1.73456 12.9796 0.0198425L12.4246 0.0198425C12.0975 0.0595274 11.7704 0.0990958 11.4532 0.158502C4.82558 1.36698 0.154389 7.32156 0 14.0317L37.8142 14.0317Z" transform="translate(0.0936197 27.84082)" id="Path" fill="#27A2DB" stroke="none" />
    <path d="M22.7331 7.55907C22.1537 4.08246 18.6458 5.15174 18.6458 5.15174L18.6414 5.16045C18.6391 5.15829 18.6367 5.15625 18.6344 5.15409L18.6458 5.15174C18.6458 5.15174 19.3613 4.434 18.3865 2.47851C17.4116 0.523087 12.4967 -0.776718 7.78491 0.523087C3.07307 1.82296 0.991647 4.78935 0.179284 9.78554C-0.500442 13.9659 0.936953 16.1204 1.42576 16.7145L2.0755 18.7661L2.64502 18.7661L3.4024 15.0115C6.1706 12.9989 10.1606 12.8674 14.2968 9.64719C14.9475 12.2162 16.6738 14.6136 19.9902 16.3567L20.4762 18.7661L21.0457 18.7661L21.5764 17.0904C21.5782 17.0911 21.5797 17.0918 21.5815 17.0925C22.5925 14.2321 23.3126 11.0357 22.7331 7.55907L22.7331 7.55907Z" transform="translate(7.063711 0.1083708)" id="Path" fill="#344D5B" stroke="none" />
  </g>
</svg>
