<?xml version="1.0" encoding="utf-8"?>
<svg viewBox="0 0 18 18" version="1.1" xmlns:xlink="http://www.w3.org/1999/xlink" xmlns="http://www.w3.org/2000/svg">
  <desc>Created with Lunacy</desc>
  <g id="sign-in">
    <path d="M15.8906 0L2.10938 0C0.946266 0 0 0.946266 0 2.10938L0 4.92188L1.40625 4.92188L1.40625 2.10938C1.40625 1.72167 1.72167 1.40625 2.10938 1.40625L15.8906 1.40625C16.2783 1.40625 16.5938 1.72167 16.5938 2.10938L16.5938 15.8906C16.5938 16.2783 16.2783 16.5938 15.8906 16.5938L2.10938 16.5938C1.72167 16.5938 1.40625 16.2783 1.40625 15.8906L1.40625 13.0781L0 13.0781L0 15.8906C0 17.0537 0.946266 18 2.10938 18L15.8906 18C17.0537 18 18 17.0537 18 15.8906L18 2.10938C18 0.946266 17.0537 0 15.8906 0Z" id="Path" stroke="none" />
    <path d="M8.4375 0L7.44314 0.994359L10.115 3.66623L0 3.66623L0 5.07249L10.115 5.07249L7.44314 7.74436L8.4375 8.73872L12.8069 4.36936L8.4375 0Z" transform="translate(0 4.630642)" id="Path" stroke="none" />
  </g>
</svg>
