<?xml version="1.0" encoding="utf-8"?>
<svg viewBox="0 0 50 33" version="1.1" xmlns:xlink="http://www.w3.org/1999/xlink" xmlns="http://www.w3.org/2000/svg">
  <g id="truck">
    <path d="M49.9428 16.8147C49.9428 16.8053 49.9423 16.796 49.9422 16.7866C49.9285 16.1608 49.4259 15.6621 48.7924 15.6621L48.4905 15.6621L43.8282 6.64811C43.6315 6.26749 43.2392 6.0305 42.8061 6.03038L34.8463 6.02872L35.15 3.62163C35.2366 2.65969 34.9392 1.75142 34.3124 1.06395C33.6867 0.377896 32.8132 0 31.8526 0L7.14808 0C6.52692 0 5.99926 0.480615 5.94004 1.10024L5.69241 3.08345L19.7678 3.08345C20.6818 3.08345 21.4033 3.82435 21.3794 4.7383C21.3554 5.65225 20.5951 6.39314 19.6812 6.39314L14.9863 6.39314C14.9871 6.39551 14.9879 6.39787 14.9887 6.40012L1.20174 6.40012C0.555407 6.40012 0.0177002 6.924 0.000797162 7.57033C-0.0161059 8.21667 0.49406 8.74054 1.1404 8.74054L19.3929 8.74054C20.2402 8.87104 20.8731 9.60378 20.8499 10.4909C20.8243 11.4651 20.0178 12.2551 19.0452 12.2632L6.46155 12.2632C5.80872 12.2632 5.26569 12.7924 5.24855 13.4453C5.23141 14.0981 5.74678 14.6273 6.39962 14.6273L18.8351 14.6273C19.6948 14.747 20.3404 15.4857 20.317 16.3814C20.2913 17.3606 19.4767 18.1545 18.4975 18.1545L4.23118 18.1545L4.23118 18.1558L3.03248 18.1558C2.37964 18.1558 1.83661 18.685 1.81947 19.3378C1.80233 19.9907 2.31758 20.5199 2.97054 20.5199L4.00505 20.5199L3.60044 24.7537C3.51368 25.7155 3.81108 26.6238 4.43803 27.3112C5.06356 27.9974 5.9372 28.3752 6.89784 28.3752L7.79028 28.3752C8.21557 30.8071 10.3196 32.6446 12.8932 32.6446C15.4669 32.6446 17.6671 30.8071 18.2195 28.3753L29.3565 28.3753C30.2569 28.3753 31.1094 28.031 31.778 27.4673C32.3893 28.054 33.1997 28.3753 34.0846 28.3753L34.2678 28.3753C34.693 30.8071 36.797 32.6446 39.3708 32.6446C41.9444 32.6446 44.1447 30.8071 44.697 28.3753L45.4321 28.3753C47.3471 28.3753 49.0455 26.8184 49.2181 24.9048L49.9384 16.9254C49.9393 16.9147 49.9389 16.904 49.9396 16.8931C49.9408 16.8767 49.943 16.8606 49.9435 16.8441C49.9436 16.8387 49.9434 16.8334 49.9431 16.828L49.9431 16.8278C49.9429 16.8234 49.9428 16.8191 49.9428 16.8147ZM45.4942 26.0112C46.1747 26.0112 46.8015 25.4353 46.863 24.7537L47.4701 18.0262L40.8107 18.0262C39.85 18.0262 38.9761 17.6482 38.3506 16.9619C37.7237 16.2745 37.4264 15.3662 37.5133 14.4044L38.0559 8.3935L34.6328 8.39279L33.1424 24.9047C33.1151 25.2077 33.2035 25.4879 33.3913 25.6939C33.578 25.8986 33.8461 26.0112 34.1465 26.0112L34.3899 26.0112C35.0367 23.7118 37.1697 22.0063 39.6493 22.0063C42.1288 22.0063 44.1725 23.7118 44.699 26.0112L45.4942 26.0112ZM10.0774 27.3255C10.0347 28.955 11.3257 30.2805 12.9552 30.2805C14.5846 30.2805 15.9449 28.955 15.9876 27.3255C16.0302 25.696 14.7393 24.3703 13.1099 24.3703C11.4805 24.3703 10.1201 25.696 10.0774 27.3255ZM39.4327 30.2805C37.8033 30.2805 36.5124 28.955 36.5549 27.3255C36.5976 25.696 37.958 24.3703 39.5874 24.3703C41.2169 24.3703 42.5079 25.696 42.4651 27.3255C42.4224 28.955 41.0621 30.2805 39.4327 30.2805Z" transform="translate(-0.000442552 0.02033097)" id="Shape" fill-rule="evenodd" stroke="none" />
  </g>
</svg>
