<?xml version="1.0" encoding="utf-8"?>
<svg width="25px" height="25px" viewBox="0 0 25 25" version="1.1" xmlns:xlink="http://www.w3.org/1999/xlink" xmlns="http://www.w3.org/2000/svg">
  <desc>Created with Lunacy</desc>
  <g id="vk">
    <path d="M0 25L0 0L25 0L25 25L0 25ZM20.4375 15.5371C19.9224 14.9182 19.3156 14.391 18.7417 13.8312C18.2243 13.3261 18.1916 13.033 18.6071 12.4501C19.062 11.8135 19.5496 11.2024 20.0079 10.5692C20.4354 9.97764 20.8741 9.38698 21.098 8.67956C21.2414 8.22802 21.1145 8.02896 20.6532 7.94917C20.5734 7.93604 20.4902 7.93604 20.4093 7.93604L17.6667 7.93269C17.3288 7.92736 17.1429 8.07489 17.0237 8.37445C16.8619 8.77928 16.6956 9.18379 16.503 9.57319C16.068 10.459 15.5812 11.315 14.8989 12.039C14.8894 12.049 14.8799 12.0592 14.8702 12.0695C14.7266 12.2229 14.5648 12.3957 14.3292 12.3178C14.0154 12.203 13.9225 11.6848 13.9278 11.5099L13.9256 8.34401C13.8645 7.89242 13.7637 7.69005 13.3145 7.60242L10.4657 7.60242C10.0864 7.60242 9.8949 7.75027 9.69138 7.98736C9.57545 8.12538 9.53935 8.21385 9.78012 8.25978C10.2524 8.34934 10.5203 8.6556 10.5903 9.12928C10.7031 9.88709 10.6952 10.648 10.6297 11.408C10.6113 11.6301 10.5729 11.8509 10.4853 12.0586C10.3476 12.3856 10.1245 12.4514 9.83248 12.2501C9.56907 12.0687 9.38319 11.8128 9.20039 11.5558C8.51699 10.5901 7.97254 9.54918 7.52743 8.45544C7.39946 8.13939 7.17748 7.94819 6.84292 7.94258C6.02045 7.92939 5.19715 7.92742 4.37352 7.94368C3.87946 7.95236 3.7316 8.19313 3.93402 8.64242C4.82957 10.6359 5.82699 12.5737 7.12929 14.3387C7.79754 15.2441 8.56512 16.0447 9.55699 16.611C10.6801 17.253 11.8895 17.4467 13.1646 17.3876C13.7606 17.3591 13.9398 17.2037 13.9672 16.6099C13.9857 16.2031 14.0327 15.7975 14.2329 15.4322C14.4297 15.0736 14.7284 15.0058 15.0727 15.229C15.2443 15.3415 15.3888 15.4826 15.5254 15.6335C15.8611 15.9999 16.1861 16.3792 16.5337 16.7336C16.971 17.1787 17.4895 17.441 18.1401 17.3876L20.6607 17.3887C21.0663 17.3613 21.2774 16.8638 21.0445 16.4097C20.8804 16.0928 20.6651 15.8107 20.4375 15.5371Z" id="Shape" fill-rule="evenodd" stroke="none" />
  </g>
</svg>
