<?xml version="1.0" encoding="utf-8"?>
<svg viewBox="0 0 40 42" version="1.1" xmlns:xlink="http://www.w3.org/1999/xlink" xmlns="http://www.w3.org/2000/svg">
  <g id="bell">
    <path d="M13.9037 6.95201C13.9037 10.7914 10.7911 13.9037 6.95169 13.9037C3.11227 13.9037 0 10.7914 0 6.95201C0 3.11259 3.11227 0 6.95169 0C10.7911 0 13.9037 3.11259 13.9037 6.95201L13.9037 6.95201Z" transform="translate(10.4277 27.80709)" id="Path" fill="#FFA000" stroke="none" />
    <path d="M29.5589 17.2422C23.6673 16.4008 19.1176 11.3346 19.1176 5.21385C19.1176 3.47569 19.4892 1.82663 20.148 0.330003C19.2582 0.121563 18.3338 0 17.3794 0C10.6711 0 5.21385 5.45698 5.21385 12.1655L5.21385 17.0109C5.21385 20.4503 3.70704 23.6969 1.06352 25.9318C0.387602 26.5087 0 27.3517 0 28.2415C0 29.9189 1.36424 31.2831 3.04131 31.2831L31.7175 31.2831C33.3949 31.2831 34.7591 29.9189 34.7591 28.2415C34.7591 27.3517 34.3715 26.5087 33.6781 25.9162C31.1128 23.7455 29.6251 20.5944 29.5589 17.2422L29.5589 17.2422Z" transform="translate(-1.669775E-13 3.476006)" id="Path" fill="#FFC107" stroke="none" />
    <path d="M17.3797 8.68985C17.3797 13.4891 13.4891 17.3794 8.68985 17.3794C3.89066 17.3794 0 13.4891 0 8.68985C0 3.89066 3.89066 0 8.68985 0C13.4891 0 17.3797 3.89066 17.3797 8.68985L17.3797 8.68985Z" transform="translate(22.59324 -1.598721E-13)" id="Path" fill="#F44336" stroke="none" />
  </g>
</svg>
