<?xml version="1.0" encoding="utf-8"?>
<svg viewBox="0 0 10 6" version="1.1" xmlns:xlink="http://www.w3.org/1999/xlink" xmlns="http://www.w3.org/2000/svg">
  <g id="icon/open/no">
    <path d="M2.13291 0L7.86709 0Q7.90247 0 7.93776 0.00250262Q7.97305 0.00500525 8.00808 0.00999796Q8.0431 0.0149907 8.07768 0.0224484Q8.11227 0.0299062 8.14624 0.0397917Q8.1802 0.0496772 8.21339 0.0619408Q8.24657 0.0742045 8.27881 0.0887849Q8.31104 0.103365 8.34216 0.120189Q8.37329 0.137013 8.40314 0.155997Q8.43299 0.17498 8.46143 0.196028Q8.48987 0.217076 8.51674 0.240082Q8.54362 0.263089 8.5688 0.287939Q8.59398 0.312789 8.61734 0.339358Q8.6407 0.365927 8.66212 0.394082Q8.68355 0.422238 8.70292 0.451838Q8.7223 0.481438 8.73954 0.512334Q8.75677 0.54323 8.77178 0.575269Q8.78678 0.607307 8.79948 0.640327Q8.81219 0.673346 8.82252 0.707181Q8.83286 0.741017 8.84077 0.775498Q8.84869 0.80998 8.85414 0.844935Q8.8596 0.87989 8.86257 0.915144Q8.86554 0.950397 8.866 0.985772Q8.86647 1.02115 8.86444 1.05647Q8.8624 1.09179 8.85787 1.12687Q8.85335 1.16196 8.84635 1.19664Q8.83935 1.23132 8.82991 1.26542Q8.82048 1.29951 8.80865 1.33286Q8.79683 1.3662 8.78268 1.39863Q8.76853 1.43105 8.75212 1.46239Q8.73571 1.49374 8.71712 1.52384Q8.69853 1.55394 8.67786 1.58265Q8.65719 1.61137 8.63455 1.63854L5.76745 5.07906Q5.7324 5.12112 5.69296 5.1591Q5.65352 5.19708 5.61017 5.23052Q5.56681 5.26396 5.52007 5.29247Q5.47332 5.32097 5.42373 5.3442Q5.37415 5.36742 5.32232 5.38509Q5.2705 5.40275 5.21705 5.41465Q5.16361 5.42654 5.10918 5.43253Q5.05475 5.43851 5 5.43851Q4.94525 5.43851 4.89082 5.43253Q4.8364 5.42654 4.78295 5.41465Q4.7295 5.40275 4.67768 5.38509Q4.62585 5.36742 4.57627 5.3442Q4.52669 5.32097 4.47994 5.29247Q4.43319 5.26396 4.38983 5.23052Q4.34648 5.19708 4.30704 5.1591Q4.2676 5.12112 4.23255 5.07906L1.36545 1.63854Q1.34281 1.61137 1.32214 1.58265Q1.30147 1.55394 1.28288 1.52384Q1.26429 1.49374 1.24788 1.46239Q1.23147 1.43105 1.21732 1.39863Q1.20317 1.3662 1.19134 1.33286Q1.17952 1.29951 1.17009 1.26542Q1.16065 1.23132 1.15365 1.19664Q1.14665 1.16196 1.14212 1.12687Q1.1376 1.09179 1.13556 1.05647Q1.13353 1.02115 1.13399 0.985772Q1.13446 0.950397 1.13743 0.915144Q1.1404 0.87989 1.14586 0.844935Q1.15131 0.80998 1.15923 0.775498Q1.16714 0.741017 1.17748 0.707181Q1.18781 0.673346 1.20052 0.640327Q1.21322 0.607307 1.22822 0.575269Q1.24323 0.54323 1.26046 0.512334Q1.2777 0.481438 1.29708 0.451838Q1.31645 0.422238 1.33787 0.394083Q1.3593 0.365927 1.38266 0.339358Q1.40602 0.312789 1.4312 0.287939Q1.45638 0.263089 1.48326 0.240082Q1.51013 0.217076 1.53857 0.196028Q1.56701 0.17498 1.59686 0.155997Q1.62671 0.137013 1.65784 0.120189Q1.68896 0.103365 1.72119 0.0887849Q1.75343 0.0742045 1.78661 0.0619408Q1.81979 0.0496772 1.85376 0.0397917Q1.88773 0.0299062 1.92232 0.0224484Q1.9569 0.0149907 1.99192 0.00999796Q2.02695 0.00500525 2.06224 0.00250262Q2.09753 0 2.13291 0Z" id="Path-3" stroke="none" />
  </g>
</svg>
