<?xml version="1.0" encoding="utf-8"?>
<svg width="25px" height="25px" viewBox="0 0 25 25" version="1.1" xmlns:xlink="http://www.w3.org/1999/xlink" xmlns="http://www.w3.org/2000/svg">
  <desc>Created with Lunacy</desc>
  <g id="linkedin">
    <path d="M0.0721003 0.0832503L0.0721003 0.0167501C0.0585002 0.0390502 0.0397002 0.0613502 0.0279001 0.0832503L0.0721003 0.0832503Z" transform="translate(13.4989 11.18228)" id="Path" stroke="none" />
    <path d="M0 0L0 25L25 25L25 0L0 0ZM5.92141 8.08713L5.89691 8.08713C4.65268 8.08713 3.84619 7.22994 3.84619 6.15851C3.84619 5.06356 4.67625 4.23065 5.9457 4.23065C7.21542 4.23065 7.9957 5.06356 8.01998 6.15851C8.01998 7.22994 7.21542 8.08713 5.92141 8.08713ZM17.4437 20.7693L21.1538 20.7693L21.1538 14.3702C21.1538 10.9428 19.3238 9.3483 16.8822 9.3483C14.9113 9.3483 14.0315 10.4329 13.5385 11.1915L13.5385 9.61028L9.82764 9.61028C9.87736 10.6571 9.82764 20.7694 9.82764 20.7694L13.5385 20.7694L13.5385 14.5372C13.5385 14.2028 13.564 13.8713 13.6615 13.6329C13.93 12.9653 14.5394 12.2761 15.5649 12.2761C16.9077 12.2761 17.4437 13.2997 17.4437 14.7992L17.4437 20.7693ZM4.06677 20.7694L7.77589 20.7694L7.77589 9.61023L4.06677 9.61023L4.06677 20.7694Z" id="Shape" fill-rule="evenodd" stroke="none" />
  </g>
</svg>
