<?xml version="1.0" encoding="utf-8"?>
<svg width="25px" height="25px" viewBox="0 0 25 25" version="1.1" xmlns:xlink="http://www.w3.org/1999/xlink" xmlns="http://www.w3.org/2000/svg">
  <desc>Created with Lunacy</desc>
  <g id="twitter">
    <path d="M0 25L0 0L25 0L25 25L0 25ZM19.3921 9.42963C19.3921 9.27584 19.3887 9.12265 19.3819 8.97029C20.0758 8.46974 20.6778 7.8443 21.1537 7.13227C20.5169 7.41468 19.8326 7.60562 19.1143 7.6915C19.8474 7.25194 20.4105 6.55622 20.6755 5.72699C19.9894 6.13386 19.2294 6.42952 18.4207 6.58859C17.773 5.89853 16.8501 5.46738 15.8288 5.46738C13.8679 5.46738 12.2779 7.05721 12.2779 9.01809C12.2779 9.29633 12.3094 9.56738 12.37 9.82738C9.41893 9.67914 6.80244 8.26556 5.05118 6.11716C4.74547 6.64172 4.57036 7.25161 4.57036 7.90243C4.57036 9.13424 5.19706 10.2212 6.14992 10.8579C5.56777 10.8395 5.0203 10.6797 4.54162 10.4138C4.54129 10.4286 4.54129 10.4435 4.54129 10.4585C4.54129 12.1789 5.76536 13.6139 7.3897 13.9402C7.09173 14.0212 6.77799 14.0648 6.45415 14.0648C6.22536 14.0648 6.00288 14.0425 5.78596 14.0009C6.23788 15.4117 7.54931 16.4384 9.10316 16.4669C7.88783 17.4195 6.35678 17.9871 4.69316 17.9871C4.40645 17.9871 4.12387 17.9703 3.84607 17.9373C5.41744 18.945 7.28393 19.5327 9.2892 19.5327C15.8206 19.5327 19.3921 14.1221 19.3921 9.42963Z" id="Shape" fill-rule="evenodd" stroke="none" />
  </g>
</svg>
