<?xml version="1.0" encoding="utf-8"?>
<svg viewBox="0 0 40 24" version="1.1" xmlns:xlink="http://www.w3.org/1999/xlink" xmlns="http://www.w3.org/2000/svg">
  <desc>Created with Lunacy</desc>
  <g id="vk">
    <path d="M33.1917 13.38C32.545 12.5633 32.73 12.2 33.1917 11.47C33.2 11.4617 38.5383 4.085 39.0883 1.58333L39.0917 1.58167C39.365 0.67 39.0917 1.4803e-15 37.77 1.4803e-15L33.3967 1.4803e-15C32.2833 1.4803e-15 31.77 0.575 31.495 1.21833C31.495 1.21833 29.2683 6.54833 26.1183 10.0033C25.1017 11.0017 24.6317 11.3217 24.0767 11.3217C23.8033 11.3217 23.3783 11.0017 23.3783 10.09L23.3783 1.58167C23.3783 0.488333 23.0667 0 22.145 0L15.2683 0C14.57 0 14.155 0.51 14.155 0.985C14.155 2.02167 15.73 2.26 15.8933 5.17667L15.8933 11.505C15.8933 12.8917 15.6417 13.1467 15.0833 13.1467C13.5967 13.1467 9.98833 7.795 7.85 1.67C7.41833 0.481667 6.99667 0.00166667 5.875 0.00166667L1.5 0.00166667C0.251667 0.00166667 0 0.576667 0 1.22C0 2.35667 1.48667 8.00833 6.91333 15.475C10.53 20.5717 15.6233 23.3333 20.2567 23.3333C23.0417 23.3333 23.3817 22.72 23.3817 21.665C23.3817 16.795 23.13 16.335 24.525 16.335C25.1717 16.335 26.285 16.655 28.885 19.1133C31.8567 22.0283 32.345 23.3333 34.0083 23.3333L38.3817 23.3333C39.6283 23.3333 40.26 22.72 39.8967 21.51C39.065 18.965 33.445 13.73 33.1917 13.38L33.1917 13.38Z" id="Path" fill="#4B729F" stroke="none" />
  </g>
</svg>
